<svg id="Layer_1" data-name="Layer 1" xmlns="http://www.w3.org/2000/svg" xmlns:xlink="http://www.w3.org/1999/xlink" viewBox="0 0 500 500"><defs><style>.cls-1,.cls-11{fill:none;}.cls-2{fill:#f29f3d;}.cls-3{clip-path:url(#clip-path);}.cls-13,.cls-4{fill:#cc773e;}.cls-5{fill:#ffd580;}.cls-6{fill:#8c3839;}.cls-7{fill:#f2b96d;}.cls-8{fill:#e6a05c;}.cls-9{fill:#a54f42;}.cls-10{fill:#802f38;}.cls-11,.cls-13{stroke:#cc773e;stroke-miterlimit:10;}.cls-12{fill:#f1c26c;}.cls-14{opacity:0.2;}.cls-15{clip-path:url(#clip-path-2);}.cls-16{fill:#fff;}</style><clipPath id="clip-path"><circle class="cls-1" cx="250" cy="250" r="218.76"/></clipPath><clipPath id="clip-path-2"><circle class="cls-1" cx="250" cy="250" r="250"/></clipPath></defs><title>Felicoin</title><g id="Felicoin_1" data-name="Felicoin 1"><circle class="cls-2" cx="250" cy="250" r="250"/><g class="cls-3"><path class="cls-4" d="M379.76,354.74c-15.63,16.68-61.38,98-61.38,98-21.15-46.29-38.91-57.86-38.91-57.86l-2.13-3.68c-10-.68-33.58,35.67-33.58,35.67s14.5-45.27,13.05-49m-.29,31.77s-8.77,9.38-12.76,17.72-19.62,82.76-19.62,82.76l72.77,0s19.94-54.22,24-61.29c0,0-11.47-38.7-32.08-47.75-9.34-5.68-10.8-10.62-10.8-10.62S264.46,391.59,256.52,409.66Zm65.05,99.52H522.15V443.13s-21.67-27.23-29-27.57-25.27-15.42-25.27-15.42c-46.89-38.9-73.51-38.71-73.51-38.71M257.75,377.89c-17.3,49.27-32.59,135-32.67,131.77s37.34-131.77,34.12-130.75S257.75,377.89,257.75,377.89Zm-.81-27.59S184.07,368.51,145.42,382c-9.23,2.8-15.22,19.91-18.71,29.86S112,437.43,88.81,509.18l135.33,0s33.59-128,32.67-131.78S256.94,350.3,256.94,350.3Zm29.94,53.41a2,2,0,0,0,1.29.75c.09-.6.94-.88.93-1.49a1.33,1.33,0,0,0-.14-.44,23.35,23.35,0,0,0-5.88-7.68c-1.15-1-2.81-2.31-4.38-2.41-1.79-.13-1.64,1.26-.72,2.38C280.6,398,284,400.8,286.88,403.71Zm-15-.36s.62-3.79-2.41-4.57-3.28,2.4-3.28,2.4A6.2,6.2,0,0,0,271.89,403.35Zm45.49,52.76c1.83-1.26-6.74-19.64-5.06-21.12s1.25-2.43-.42-3.67c-2.56-1.89-5-1.23-8-.7a23.19,23.19,0,0,0-8.1,2.77,31.73,31.73,0,0,0-6.71,6.09l-2.55,2.81a12.09,12.09,0,0,0-2.31,3.2c-1.13,2.65-.26,5.69.61,8.44,2.1-1.95,3.72-2.09,4.81-6,1.12-3.32,4.75-3.77,7.22-6,1.55-1.37,4.41-3,6-4.37C304.9,436,317.67,453.38,317.38,456.11Zm-31.77-6.29c-.57,1.14.07,8.08.15,9.35.12,1.9.21,3.81.27,5.72a206.47,206.47,0,0,1-.5,22.66c1.22-.61,1.42-2.26,1.61-3.63.33-2.27,1.09-4.46,1.56-6.7,1.05-5,.65-10.12.25-15.18a20.31,20.31,0,0,0-.53-3.74C288.11,457.14,286.84,447.33,285.61,449.82Zm-13.83-53.75a15.58,15.58,0,0,1,6.46-3.35c-.39-.1-.17-.71-.23-1.12a.88.88,0,0,0-.83-.66,2.49,2.49,0,0,0-1.09.26c-4.33,1.8-8.76,4-11.46,7.92a.58.58,0,0,0-.13.35.62.62,0,0,0,.17.26c.56.56,1.37,1.3,1.37,1.3s2.32-2.36,2.82-2.8C270.05,397.17,270.58,397.11,271.78,396.07Zm-15.26,13.59S266.61,432,260,445.25L250.41,483a90.45,90.45,0,0,1-19.95,27.11h51.18s10.14-36.81,3.67-58.76c0,0,3.23-15.2,20.92-19,0,0-2.57-22.63-17.72-28.37,0,0-21.15,2-24.33-4.87Zm.13,1.59c1.12-2.69-2.18-1.41-3.33-.46a14.32,14.32,0,0,0-2.59,3.15l-4.06,6c-1.56,2.32-3.21,4.95-2.74,7.73a87.26,87.26,0,0,1,9-11.59C254.23,414.62,255.88,413.09,256.65,411.25Zm29.85-7.58s16.9,21.16,18.77,28.45l3.24-.22S306,416.31,295.67,409c-6.86-6.38-7.16-5.5-7.16-5.5ZM257,410.73a41.71,41.71,0,0,1,3.77-5.88,59.37,59.37,0,0,1,4.68-4.58l-.87-3s-5.95,3.81-8.85,9.62Zm22.47-15.82s17.76,11.57,38.91,57.86c0,0,45.75-81.35,61.38-98,6.31-6.06.49-20.65.49-20.65s1.72,19.39-47.77,39.25c-30,13.34-44.67,23.71-52.19,15.89s-26.58-25-19.92-39.29l-2.11-5.88s-5.36,22.6-1.45,33.83c1.45,3.74-13.05,49-13.05,49s23.61-36.35,33.58-35.67ZM308,399.66c5.35-2.84,12.45-5.75,18.51-4.77s10.52.65,15.14-3.15c-10.32,7.59-9,27.13-17.71,36.35a25.34,25.34,0,0,1-3.69,3.23,7,7,0,0,0-2,1.84,3.74,3.74,0,0,0,.31,3.94,10.43,10.43,0,0,0,3.24,2.79c7.51-9.13,15.19-18.56,18.47-29.65a35.92,35.92,0,0,1,1.25-3.89,25.32,25.32,0,0,1,1.52-2.86l9.39-16a5.48,5.48,0,0,1-5.65-3.75c-.73-2.25,2.7-5.69,4-7.68s13.83-13.21,15.71-14.77c-7.17,4-10.09,7.15-25.93,15-2.13,1.06-15.4,5.15-17.71,5.82a106.92,106.92,0,0,0-17.21,7c-5.85,2.81-12.56,6.48-19.13,6.14,0,2.67,2.58,4.69,5.06,6,2,1.08,5.91,5,7.86,4.82C302.05,405.93,305.59,400.93,308,399.66Zm-51.44-38.73a17.08,17.08,0,0,0,2.13,6.59,56.41,56.41,0,0,0,16.54,19.6c-1.67-1.13-2.31-3.27-3.14-5.13-2.09-4.69-5.9-8.29-9-12.34a25.57,25.57,0,0,1-3.76-6.48c-.75-2-.49-4.89-1.6-6.59C256.66,357.49,256.45,359.49,256.54,360.93Zm5.15,80.61c-.7,1.16-.21,2.59.65,3.71a10.13,10.13,0,0,0,3.33,2.58,33,33,0,0,0,18.55,3.89q-3.24-.41-6.45-1.08a21.9,21.9,0,0,1-5.53-1.77,26.29,26.29,0,0,1-3.43-2.25A68.4,68.4,0,0,0,261.69,441.54Zm29.61,48.71c-.42.75-9.49,18.13-7.71,18.32l9.94,1.06c8.46-20.81,17.07-42.32,16.93-64.85-4.16,7.23-6.36,15.43-9.18,23.31A153,153,0,0,1,291.3,490.25Zm113.39-78.67c5.54-46-9.44-48-9.44-48l4,40.87-8.06-1L380.91,407l-14.43,16.13,20.09,9-5.66,6-51.29,44.73-15.28,26.78,9.28,2.5c1.4-28.59,79.69-80.26,79.69-80.26-7.18-8.43-12.06-13.64-19.57-15.4C383.74,416.5,396.88,409.37,404.69,411.58Zm-156.25,7.28c4.38-5.48,8-12.28,12.51-17.61,3-3.56,5.56-4.94,8.66-8.43a16.17,16.17,0,0,1,3.84-2.85c-1.51.63-2.59,1.43-4.3,1.57s-3.3-1-4.81-.94c-2.78.1-4.82,4.72-6.33,7.16A92.33,92.33,0,0,0,248.44,418.86Zm-3.22,47a26.9,26.9,0,0,0-6.64,11.87c-.53,2.06-.82,4.19-1.4,6.24-1.16,4.14-3.44,7.85-5,11.86A52.59,52.59,0,0,0,229.29,509a57.36,57.36,0,0,1,12.91-22,32.8,32.8,0,0,0,3.25-3.72,25.19,25.19,0,0,0,2.9-6.68c1.78-5.46,6.52-14.13,6-19.79C251.64,460.22,248.2,462.72,245.22,465.84Zm4.18-11.56c1.7-.9,1.83-3.28,2.36-5.17,1-3.46,3.84-5.92,6.41-8.35a11.77,11.77,0,0,0,1.7-1.89c1.59-2.38,1.35-5.59.54-8.35-2.08,4.46-6.86,6.78-10.07,10.47a34,34,0,0,0-3.53,5.23,17.24,17.24,0,0,0-1.16,2.21,34.41,34.41,0,0,0-1.11,4c-.85,3.13-2.54,6-3.44,9.08-.67,2.31-.9,4.76-1.91,6.93.9.07,1.64-.7,2.22-1.41a27.68,27.68,0,0,0,3.76-5.3,38.78,38.78,0,0,1,1.73-3.62c1.19-1.9,3.14-3.3,4-5.41m102.4-59.31c-30,35.31-56.35,116.2-56.35,116.2l24,2.53c-2.34-25,77.65-80,77.65-80-4.49-6.52-15.84-13.48-15.84-13.48-8.86-6.12,20.05-9,20.05-9,3.22-51.47-8.7-43.49-8.7-43.49,2-7.66-13.8-32.06-13.8-32.06C380.69,343.68,378.42,356.58,353.26,393.43Zm34.82-22.64c-.81,6.71-4,12.83-7.17,18.78,2.12,1.74,5.82-.9,7.81,1,1.17,1.12.89,3.06.51,4.65l-3.57,15.13a26.67,26.67,0,0,1,13.3-3.46,142.68,142.68,0,0,0,.8-31.12c-.19-2.29-.73-5-2.82-5.87a12.37,12.37,0,0,1-2.6-.85,4.41,4.41,0,0,1-1.38-2.79,142.65,142.65,0,0,0-4.67-16.11c-1.38-3.9-2.54-9.87-5.07-3.65-.72,1.77-2.16,5.1-1.54,6.75.52,1.39,3.3,3.19,4.18,4.76A21.42,21.42,0,0,1,388.08,370.79Zm27.59,8.71c2.55,3.12,5.22,6.56,5.44,10.62.13,2.39-.6,4.91.32,7.12,1,2.42,3.63,3.61,6,4.66a109.34,109.34,0,0,1,29.69,19.66c5.64,5.25,10.79,11.14,17.11,15.5a5.57,5.57,0,0,0,2.91,1.22,5.75,5.75,0,0,0,2.64-.82c8.68-4.37,17.81-9.8,27.34-8.18-5.91-9.66-18-12.64-27.64-18.35-6.45-3.84-12-9.09-17.92-13.72a227.76,227.76,0,0,0-20.3-13.58c-11.84-7.31-24.62-16-38.31-19,0,3.16,2.76,3.65,4.73,5.3C410.73,372.45,413.15,376.39,415.67,379.5Zm-266,3s98-24.25,99.87-23.23-.3-4.46,3.3-4.85S174.1,374.06,149.66,382.48Zm234.67,39.57a69,69,0,0,0-13.48-7.57c2.38,3.47,5.6,6.49,8,10,1.52,2.23,3,4.66,5.42,5.87a20.59,20.59,0,0,1-2.46,4.92,6.74,6.74,0,0,1-4.48,2.83,40.35,40.35,0,0,0,17.25-4.5,1.36,1.36,0,0,0,.62-.51c.33-.63-2.06-5.14-2.66-5.49A56.56,56.56,0,0,1,384.33,422.05ZM126.54,510.32a444.23,444.23,0,0,0,57.11.76c-11.32-13.67-34.25-2.18-37.15-19.85-1.85-11.25,5.92-33.49,3.16-44.54-1.1-4.39,3.83-25,3.72-29.5C144.42,423.94,125.46,510.24,126.54,510.32ZM257.69,346.69s-19.25.57-35.71,31.2c0,0,15-2.55,15,0,0,0-19.45,8.15-26.43,19.39,0,0,16.79,57.48,3.65,112.47m2.08-127.27,17.86-3.29c-7.37.51-27.18,21.4-27.18,21.4,18.15,34.22,3.59,109,3.59,109l3.65.12c10-72-3.65-112.47-3.65-112.47,2-5.45,26.43-19.39,26.43-19.39-3-3.23-11.86-1.33-11.86-1.33Zm46.12-27.9s-1.56,8.67,0,16.16c0,0,12.37,18.24,17,20.49,5.31,2.61,16.86,0,16.86,0s79-29.14,82.95-53.84c0,0,7.94-39.47,11.88-45.86l-11.2-14.32-38.46,30.55-39.14,34.39S281.73,364.8,262.36,354.58Zm-8.73,4.86a12.92,12.92,0,0,0,1.74,4.42l2.82,5.16c.73,1.35,1.77,2.88,3.3,2.83.19,0,.93-8.67,1-9.56.37-3.46,1-6.06-1.07-9.08C257.06,346.79,253,354.38,253.63,359.44Zm123.06-77.85L371.92,299l-45.47,46.43-64.67,6.13V360c6.43,7.83,29.91,16.39,54.81,6.64,37.13-14.55,51.76-39.48,55.67-42.41s9.87-40.3,9.87-40.3ZM264.32,364.78c-.55-1-1.18-3.68-2.69-2.69-1.13.74-.41,4.41-.33,5.55a10.91,10.91,0,0,0,.67,3.69,11.27,11.27,0,0,0,1.65,2.46L273,385.31a11.81,11.81,0,0,0,2.23,2.29c1.3.93,3.85,2.89,5.41,3.22a19.77,19.77,0,0,0,11.71-1.1c-8-2.31-15.86-9.2-21.18-15.55A65.3,65.3,0,0,1,264.32,364.78ZM415.75,230s15.31-41.91,0-65.89-55.46-75.52-125-57.54C250,115,249.38,152.11,249.38,152.11l92.33,9,29.37,77.31,22.77,32.34Zm-15.83,58.44c6.87-5.73,13.71-22.84,17.31-30s6.59-28.77-4.2-28.77S389.66,250,389.66,250l-6.6-16.78c3.6-44.36-10.79-84.51-16.18-89.31s-21-5.39-30.57-7.19,7.2-12,7.2-12-46.76-11.39-75.53,8.39-32.56,56.34-32.56,56.34,5.59,40.16.8,65.93,17,84.58,22.77,99.5c12.89,12.88,40.76,7.79,50.95,7.19,9-.6,56.94-37.76,59.34-39.56S378.87,283,378.87,283C390.86,295.57,395.78,291.89,399.92,288.44Zm-142.5-43.91c7.8.29,11.12-3.53,12.76-.6,1.78,1.86,0,9.23-4.31,18.79,5.09-6.14,9.12-24.67,5.34-32-.27-.52-.31-1.24-.86-1.43-1.51,2.17.47,5.64-1.26,7.64a4.44,4.44,0,0,1-1.5,1,39.39,39.39,0,0,1-5.37,2c-1.26.41-2.52.81-3.8,1.1a21.94,21.94,0,0,1-6,.5c-.9,0-5.82-1.88-6.3-.9C245.15,242.63,249.63,244.25,257.42,244.53Zm5.17,37.06s-7-8.7,0-15.59c20.24-20,2.4-56,2.4-56m32.36,71.6s10.75-11.18-9.59-17.38m-28.47,10.31a16.67,16.67,0,0,0,2.18,5.69,3.14,3.14,0,0,0,.81,1,3.19,3.19,0,0,0,2,.37l12-.36c2.25-.07,4.5-.14,6.74-.34,4.66-.44,10.08-1.84,14.2.4.65-.1.87-.89,1-1.53s.66-1.39,1.28-1.16a4.81,4.81,0,0,0-1.24-3.91,9.29,9.29,0,0,0-3.51-2.32c-3.16-1.32-6.64-1.69-9.83-2.93-1.37-.53-2.67-1.21-4-1.77a24.08,24.08,0,0,0-20.25,1C258.87,269.64,259,272.49,259.29,274.52Zm28.47,4.67s-.18-6.59-10.28-6.29C277.48,272.9,278.17,276.79,287.76,279.19Zm9.59-62.66,9.47,19.74h32.76l10.52-16.15-16.39-13.5L299.41,209ZM294,207.27l3.37,9s21.58-17.38,52.75,3.59c0,0-7.88-23.29-35.72-19.26-.57.08-.94,2.13-1.53,2.23-.85.16-1.94-1.61-2.84-1.41A77,77,0,0,0,294,207.27ZM270.18,238l.66-10.34-4.35-14.23-16.05-5.51-11.38,10.69-1.19,9a21.63,21.63,0,0,1,8.26,13Zm-1.84-19.74-2.67-8.5s-17.35-19.86-28,7.72v10.18S248.9,205.66,268.34,218.24ZM339.58,236c-21-17.24-32.76,0-32.76,0C322.51,246.43,339.58,236,339.58,236Zm-65,65.57s-8.88-4.66-11.64-1.55-9.49,6.58-9.49,6.58,6.85,5.12,10.09,8.25c4.19,4,20.69,4.14,24.22,3.1s21.47-5.52,24.58-11c0,0-16.65-2.42-24.58-6.9C282.25,298,278.89,301.57,274.58,301.57Zm-17.85-70.31c-10.86,1.29-10.6,9.38-10.6,9.38,11.9,6.53,24.05-2.66,24.05-2.66S267.6,230,256.73,231.26Zm158.79,4.4-9,29.74-32.68-25.7a106.27,106.27,0,0,1-4.42,12.41c-3.59,9.34-8.81,17.11-16.84,23.19-12.44,9.41-22.06,14.42-36.06,9,6.92,5.71,9.07,6,18.74,6h.45c-1,3,.1,9,0,11.55a119,119,0,0,1-5,29.37,67.21,67.21,0,0,0-1.93,7c-.77,4-.71,7.49-3.27,10.71,1.14.38,2.31-.4,3.25-1.14,10.51-8.32,20.64-16.07,30.36-25.3a23.68,23.68,0,0,0,5.41-6.58,23.33,23.33,0,0,0,1.73-6.16c2.81-15.41,7.62-39.17,8.75-54.83v-.12a38.75,38.75,0,0,0,.26-4.47A39.55,39.55,0,0,0,373.79,239.7Zm-112,69c2.77-.24,3.71-1.65,6.48-1.82,3.89-.25,6,2.18,9.89,1.85,0,0,5.24-.39,6.33-.49a16.93,16.93,0,0,1,5.79.9c6.63,1.74,13.92,2.44,20.16-.4.75-.34,1.6-1.14,1.13-1.82-6.63,1.09-13.49,2.17-20,.54-2.94-.74-5.81-2-8.84-1.94-2,.06-3.88.7-5.85.75-3.43.09-6.75-1.62-10.17-1.38a28.59,28.59,0,0,0-4.48,1c-.9.21-7.21.49-7.31.81C254.55,308,261,308.77,261.83,308.7Zm5.25-28.95a6.37,6.37,0,0,0-3.64-5.09S264.62,279.75,267.08,279.75Zm1.55,45.64c3.83.13,7.55,1.5,11.38,1.42,3.46-.08,6.77-1.33,10-2.56m-4.12-66.14a16,16,0,0,1,13.37,6.46c1.23,1.68,2.75,3.9,4.77,3.39q-3.12-12.63-6.69-25.14a65.34,65.34,0,0,0-4.78-12.95c-1.14-2.14-6.26-9.81-6.22-3.88,0,5.28,1.62,10.47,1.38,15.92A157.42,157.42,0,0,1,285.9,258.11ZM364.53,146a56.12,56.12,0,0,1-12.11,12.83,3.38,3.38,0,0,0-1.09,1.17c-.39.91.14,1.93.65,2.77l10.23,16.95a2.56,2.56,0,0,0,.63.79,2.49,2.49,0,0,0,1.14.34,26.69,26.69,0,0,0,9.59-.61,2,2,0,0,0,1-.47,1.92,1.92,0,0,0,.41-1.12c1.33-9.37-3-18.52-7.1-27-.42-.84-1.48-1.26-1.8-2.15C365.57,148.06,365.72,146.86,364.53,146Zm19.71-20.38c-1.73-.84-7.23-2.84-5,1.16,3,5.33,9.52,9.21,13.9,13.33a137.56,137.56,0,0,1,10.14,11A80.46,80.46,0,0,1,409.5,159,82.6,82.6,0,0,1,414,167l7.76,15.25a1,1,0,0,1,1.07-.42,12.08,12.08,0,0,1-1.34-4.05l1.36-.28-2.5-5.27a4,4,0,0,0,1.83.61,10.36,10.36,0,0,1-3.05-5.46l1.42.08a20.14,20.14,0,0,0-3.92-6.35l2.42.72a31.57,31.57,0,0,0-4.24-5.46,4.36,4.36,0,0,0,1.83,1.21,14.25,14.25,0,0,1-3.47-5.58l1,.35-5.1-6c-.21.23.36.46.49.18s-.09-.59-.31-.81a9.93,9.93,0,0,0-3.69-2.34l1.15,1.07a20.43,20.43,0,0,0-7.36-7.24,3.8,3.8,0,0,0,2.25.88A17.29,17.29,0,0,0,398,136a32.42,32.42,0,0,0-6.81-4.41l2.81-.76Q389.22,128,384.24,125.59Zm33.09,122c0-36.72-33.44,14.63-28.48,28.31,2-5.11,13.36-6.6,11.39,2.57,4.15-4.17-.28-11.17-7.24-10.06C394.4,259.23,406.47,231.56,417.33,247.55ZM382.71,125.33a9.62,9.62,0,0,0-4.59-6.56l.15,1.87a12.19,12.19,0,0,1-3.68-2.94L374.4,119a36.19,36.19,0,0,1-5.14-5.5c.13.68-.87,1.1-1.48.77a3.52,3.52,0,0,1-1.23-1.66c-.33-.62-.83-1.26-1.53-1.28a5.42,5.42,0,0,1-5.2-2.45l-.38,1.76-3.67-2.11a1.31,1.31,0,0,0-.94-.25c-.33.09-.5.59-.21.76l-4.15-3a6.64,6.64,0,0,1-4.91-1.7l.17,1.45a11.16,11.16,0,0,1-3.06-1.18c.26-.23.49.42.18.56s-.65-.1-.92-.31a10.51,10.51,0,0,0-4.57-2.07c-.74-.14-1.83.64-1.19,1l-9.26-2.17a1.22,1.22,0,0,0-1.12.11c-.28.27,0,.91.37.69a19.67,19.67,0,0,0-11.39-.66,142.79,142.79,0,0,1-18.95,1l.61,1.1a19.37,19.37,0,0,0-7.8-.52l.38,1.21c-1,.42-2.1,0-3.16.12s-2.19,1.27-1.52,2.1l-4.43.31a1.36,1.36,0,0,0-1,.4c-.22.32.12.9.45.71a7,7,0,0,0-4.07,1l.94,1.27a46.08,46.08,0,0,0-8.93,3.84c-2.37,1.33-5.34,1.51-7.92,2.37l2.36.84a1,1,0,0,0-.21,1.83l-2.85,2.25a1.68,1.68,0,0,0-.8,1.15c0,.48.71.87.95.45l-2.3,1.2c1,.14.81,1.69,0,2.29s-1.85.8-2.43,1.57c-.34.46.07,1.43.48,1l-1.26,1.52c.54-.57,1.05.75.76,1.48l-1.73,4.39a69.48,69.48,0,0,0,5.94-5.16c1.4-1.41,2.68-3,4.21-4.23a29.76,29.76,0,0,1,6.23-3.8,142.65,142.65,0,0,1,76.21-13.89,28.14,28.14,0,0,1,5.84,1,30.2,30.2,0,0,1,7,3.69C365.41,119.16,373.76,123.8,382.71,125.33Zm-4.51,51.6a3.06,3.06,0,0,1,2,.52A43.13,43.13,0,0,0,380,188.1a.81.81,0,0,0,1.12-.67l.12,3.28a4.62,4.62,0,0,1,2.15,5.74,22.22,22.22,0,0,0-1.92,6.12,7.56,7.56,0,0,0,1.67,6l-1.28-.55,1.05,3a105.92,105.92,0,0,1-1.42,15.7c-.15.89.3,2.29,1.1,1.86a3.51,3.51,0,0,1,.71-2.63,12.57,12.57,0,0,1,.38,4.92.79.79,0,0,0-1.3-.5,46.88,46.88,0,0,1,1.25,8.9l2.25,2.33c2.39,2.47,5,5.52,4.33,8.9a5.12,5.12,0,0,1-.68-3.76c.43-1.61,1.9-2.68,3.16-3.78,5.65-4.93,8.32-12.61,8.64-20.11s-1.5-14.9-3.55-22.12a179.37,179.37,0,0,0-11.51-31c-1.11-2.25-4.59-4.91-7.08-2.86C376.9,168.81,378.47,174.29,378.2,176.93Zm44.4,6.68c-.7-1.52-1.41-1.83-3.14-1.77l-1.19,10.79c-.31,2.81-.62,5.62-1.06,8.41-1.2,7.81-3.35,15.6-2.71,23.47a6.86,6.86,0,0,0,.6,2.58,2.66,2.66,0,0,0,2.06,1.51l-.57-2.48,1,.49a7,7,0,0,0,.65-4.4,1,1,0,0,0,.45,1.06,10,10,0,0,0,.26-3.12.78.78,0,0,1,.41,1l.54-3.61c.21.26.52-.21.51-.54l-.14-3.54,1,1.46a5.56,5.56,0,0,0,.35-2.91l.15.88,0-3a.78.78,0,0,1,.22,1l-.59-2.84.84,1a10.7,10.7,0,0,1,.08-5.91l1.17,1.14a52,52,0,0,1-.62-6.93,2.39,2.39,0,0,0,1.07,1.23l-.81-6.66c-.05-.46.1-1.12.55-1a3.23,3.23,0,0,0-.91-2.64l1.19.24S422.8,184.06,422.6,183.61ZM269.26,243.75a14.39,14.39,0,0,1-3.62,2.92,26.16,26.16,0,0,1-2.93,1.39l2.26.1a2.21,2.21,0,0,0,.77,0,2.36,2.36,0,0,0,.86-.54,15.81,15.81,0,0,0,2.24-2.24,3.87,3.87,0,0,0,1.05-2.67C269.38,242.66,269.61,243.37,269.26,243.75Zm37.49-4.2a9,9,0,0,0,1.5,3.17,5.61,5.61,0,0,0,.92.83,10.29,10.29,0,0,0,6.07,2L311,242.75C310,242.07,307.7,239.46,306.75,239.55ZM277.3,282a27.79,27.79,0,0,0-3.9.18c-.2.18.05.71-.06,1a120.78,120.78,0,0,0-4.71,13.81,15.71,15.71,0,0,1,4.86,1.86,7,7,0,0,0,2.08.48c.63.14,1.1-.21,1.73-.38l5.65-1.48c.14,0,.3-.09.36-.21a.45.45,0,0,0,0-.36,58.81,58.81,0,0,1-2.84-12.94C280.14,280.84,280,281.87,277.3,282Zm-6.17,92.22-9.5-12.08,175.19-1.81"/><g id="Body"><path class="cls-5" d="M248.16,376.89c1.45,3.74-13,49-13,49s23.61-36.35,33.59-35.67l2.13,3.68s17.76,11.57,38.9,57.86c0,0,45.75-81.35,61.38-98"/><path class="cls-5" d="M247.88,408.66s-8.78,9.38-12.77,17.72-19.61,82.76-19.61,82.76l72.76,0s19.94-54.22,24-61.29c0,0-11.47-38.7-32.07-47.75-9.34-5.68-10.81-10.62-10.81-10.62S255.82,390.59,247.88,408.66Z"/><path class="cls-6" d="M385.75,360.43s26.62-.19,73.5,38.71c0,0,18,15.08,25.27,15.42s29,27.57,29,27.57v66.05H312.92"/><path class="cls-7" d="M250.55,377.91c3.23-1-34.2,127.49-34.11,130.75s15.37-82.5,32.66-131.77C249.1,376.89,247.33,378.93,250.55,377.91Z"/><path class="cls-6" d="M248.3,349.3S175.43,367.51,136.77,381c-9.22,2.8-15.21,19.91-18.7,29.86s-14.74,25.53-37.91,97.28l135.34,0s33.59-128,32.66-131.78S248.3,349.3,248.3,349.3Z"/><path class="cls-8" d="M278.23,402.71a2,2,0,0,0,1.3.75c.08-.6.94-.88.92-1.49a1,1,0,0,0-.14-.44,23.32,23.32,0,0,0-5.87-7.68c-1.16-1-2.82-2.31-4.38-2.41-1.79-.13-1.64,1.26-.72,2.38C272,397,275.32,399.8,278.23,402.71Z"/><path class="cls-8" d="M263.25,402.35s.62-3.79-2.41-4.57-3.28,2.4-3.28,2.4A6.2,6.2,0,0,0,263.25,402.35Z"/><path class="cls-8" d="M294.26,436.62c-1.58,1.34-4.45,3-6,4.37-2.47,2.2-6.09,2.65-7.22,6-1.09,3.88-2.7,4-4.8,6-.88-2.75-1.74-5.79-.61-8.44a11.87,11.87,0,0,1,2.31-3.2l2.55-2.81a31.73,31.73,0,0,1,6.71-6.09,23.19,23.19,0,0,1,8.1-2.77c3-.53,5.39-1.19,7.95.7,1.68,1.24,2.08,2.21.42,3.67s6.9,19.86,5.07,21.12C309,452.38,296.26,435,294.26,436.62Z"/><path class="cls-8" d="M279.78,457.3a20.31,20.31,0,0,1,.53,3.74c.4,5.06.79,10.21-.25,15.18-.47,2.24-1.23,4.43-1.56,6.7-.2,1.37-.4,3-1.62,3.63a204,204,0,0,0,.51-22.66c-.07-1.91-.16-3.82-.27-5.72-.08-1.27-.72-8.21-.15-9.35C278.19,446.33,279.46,456.14,279.78,457.3Z"/><path class="cls-8" d="M263.14,395.07a15.58,15.58,0,0,1,6.46-3.35c-.39-.1-.18-.71-.24-1.12a.86.86,0,0,0-.82-.66,2.46,2.46,0,0,0-1.09.26c-4.34,1.8-8.76,4-11.46,7.92a.53.53,0,0,0-.13.35.62.62,0,0,0,.17.26c.56.56,1.36,1.3,1.36,1.3s2.33-2.36,2.83-2.8C261.41,396.17,261.93,396.11,263.14,395.07Z"/><path class="cls-4" d="M247.88,408.66S258,431,251.36,444.25L241.76,482a90.45,90.45,0,0,1-19.95,27.11H273s10.13-36.81,3.66-58.76c0,0,3.23-15.2,20.93-19,0,0-2.57-22.63-17.73-28.37,0,0-21.14,2-24.32-4.87Z"/><path class="cls-8" d="M244.27,415.06a86.43,86.43,0,0,0-9,11.59c-.47-2.78,1.17-5.41,2.74-7.73l4.05-6a14.9,14.9,0,0,1,2.59-3.15c1.15-1,4.46-2.23,3.34.46C247.24,412.09,245.59,413.62,244.27,415.06Z"/><path class="cls-9" d="M277.85,402.67s16.9,21.16,18.78,28.45l3.24-.22S297.38,415.31,287,408c-6.86-6.38-7.17-5.5-7.17-5.5Z"/><path class="cls-9" d="M248.36,409.73a41.71,41.71,0,0,1,3.77-5.88,57.57,57.57,0,0,1,4.68-4.58l-.87-3s-5.95,3.81-8.86,9.62Z"/><path class="cls-5" d="M270.83,393.91s17.76,11.57,38.9,57.86c0,0,45.75-81.35,61.38-98,6.32-6.06.5-20.65.5-20.65s1.71,19.39-47.77,39.25c-30,13.34-44.67,23.71-52.19,15.89s-26.58-25-19.92-39.29l-2.12-5.88s-5.36,22.6-1.45,33.83c1.45,3.74-13,49-13,49s23.61-36.35,33.59-35.67Z"/><path class="cls-7" d="M299.34,398.66c5.35-2.84,12.45-5.75,18.51-4.77s10.52.65,15.13-3.15c-10.31,7.59-9,27.13-17.7,36.35a25.88,25.88,0,0,1-3.69,3.23,7,7,0,0,0-2,1.84,3.72,3.72,0,0,0,.31,3.94,10.21,10.21,0,0,0,3.24,2.79c7.51-9.13,15.18-18.56,18.47-29.65a33.85,33.85,0,0,1,1.25-3.89,25.32,25.32,0,0,1,1.52-2.86l9.38-16a5.49,5.49,0,0,1-5.65-3.75c-.72-2.25,2.71-5.69,4.05-7.68S356,361.86,357.84,360.3c-7.17,4-10.09,7.15-25.94,15-2.13,1.06-15.4,5.15-17.7,5.82a106.55,106.55,0,0,0-17.21,7c-5.85,2.81-12.56,6.48-19.14,6.14,0,2.67,2.59,4.69,5.06,6,2,1.08,5.91,5,7.87,4.82C293.41,404.93,297,399.93,299.34,398.66Z"/><path class="cls-7" d="M247.89,359.93a17.1,17.1,0,0,0,2.14,6.59,56.41,56.41,0,0,0,16.54,19.6c-1.67-1.13-2.31-3.27-3.14-5.13-2.09-4.69-5.9-8.29-9-12.34a25.28,25.28,0,0,1-3.76-6.48c-.75-2-.49-4.89-1.61-6.59C248,356.49,247.81,358.49,247.89,359.93Z"/><path class="cls-9" d="M260.17,445.62a25,25,0,0,0,3.43,2.25,21.77,21.77,0,0,0,5.53,1.77c2.13.45,4.29.81,6.45,1.08A32.93,32.93,0,0,1,257,446.83a10.13,10.13,0,0,1-3.33-2.58c-.86-1.12-1.35-2.55-.65-3.71A68.4,68.4,0,0,1,260.17,445.62Z"/><path class="cls-7" d="M292.64,467.09c2.81-7.88,5-16.08,9.17-23.31.14,22.53-8.46,44-16.92,64.85l-9.95-1.06c-1.77-.19,7.3-17.57,7.71-18.32A153.09,153.09,0,0,0,292.64,467.09Z"/><path class="cls-10" d="M396.05,410.58c5.54-46-9.44-48-9.44-48l4,40.87-8.05-1L372.27,406l-14.43,16.13,20.09,9-5.66,6L321,481.88l-15.28,26.78,9.29,2.5c1.4-28.59,79.68-80.26,79.68-80.26-7.17-8.43-12.05-13.64-19.56-15.4C375.1,415.5,388.24,408.37,396.05,410.58Z"/><path class="cls-7" d="M239.79,417.86c4.39-5.48,8-12.28,12.51-17.61,3-3.56,5.57-4.94,8.67-8.43a16.17,16.17,0,0,1,3.84-2.85c-1.51.63-2.59,1.43-4.3,1.57s-3.31-1-4.81-.94c-2.78.1-4.83,4.72-6.33,7.16A91.93,91.93,0,0,0,239.79,417.86Z"/><path class="cls-7" d="M236.57,464.84a27,27,0,0,0-6.63,11.87c-.54,2.06-.83,4.19-1.41,6.24-1.16,4.14-3.44,7.85-5,11.86a53,53,0,0,0-2.9,13.16,57.47,57.47,0,0,1,12.9-22,32.89,32.89,0,0,0,3.26-3.72,25.52,25.52,0,0,0,2.9-6.68c1.77-5.46,6.51-14.13,6-19.79C243,459.22,239.55,461.72,236.57,464.84Z"/><path class="cls-7" d="M240.75,453.28c1.7-.9,1.83-3.28,2.37-5.17,1-3.46,3.83-5.92,6.4-8.35a10.89,10.89,0,0,0,1.7-1.89c1.59-2.38,1.36-5.59.55-8.35C249.69,434,244.9,436.3,241.7,440a34,34,0,0,0-3.53,5.23,17.3,17.3,0,0,0-1.17,2.21,36.44,36.44,0,0,0-1.1,4c-.85,3.13-2.54,6-3.44,9.08-.67,2.31-.9,4.76-1.91,6.93.9.07,1.63-.7,2.22-1.41a27.63,27.63,0,0,0,3.75-5.3c.6-1.2,1-2.49,1.73-3.62,1.2-1.9,3.15-3.3,4-5.41"/><path class="cls-6" d="M371.61,333.09s15.8,24.4,13.8,32.06c0,0,11.92-8,8.7,43.49,0,0-28.92,2.88-20.05,9,0,0,11.35,7,15.84,13.48,0,0-80,55-77.66,80l-24-2.53s26.38-80.89,56.36-116.2C369.77,355.58,372.05,342.68,371.61,333.09Z"/><path class="cls-9" d="M379.44,369.79c-.82,6.71-4,12.83-7.17,18.78,2.11,1.74,5.82-.9,7.81,1,1.17,1.12.89,3.06.51,4.65L377,409.34a26.64,26.64,0,0,1,13.3-3.46,143.94,143.94,0,0,0,.8-31.12c-.19-2.29-.74-5-2.83-5.87a12.48,12.48,0,0,1-2.59-.85,4.41,4.41,0,0,1-1.38-2.79,140.65,140.65,0,0,0-4.68-16.11c-1.38-3.9-2.53-9.87-5.07-3.65-.72,1.77-2.16,5.1-1.53,6.75.52,1.39,3.3,3.19,4.17,4.76A21.43,21.43,0,0,1,379.44,369.79Z"/><path class="cls-9" d="M404,380.5c2.55,3.12,5.22,6.56,5.44,10.62.13,2.39-.6,4.91.32,7.12,1,2.42,3.62,3.61,6,4.66a109,109,0,0,1,29.69,19.66c5.65,5.25,10.79,11.14,17.12,15.5a5.57,5.57,0,0,0,2.9,1.22,5.82,5.82,0,0,0,2.65-.82c8.67-4.37,17.8-9.8,27.34-8.18-5.91-9.66-18-12.64-27.64-18.35-6.46-3.84-12-9.09-17.92-13.72a226.47,226.47,0,0,0-20.31-13.58c-11.83-7.31-24.61-16-38.3-19,0,3.16,2.75,3.65,4.73,5.3C399.08,373.45,401.5,377.39,404,380.5Z"/><path class="cls-9" d="M141,381.48s98-24.25,99.87-23.23-.3-4.46,3.3-4.85S165.45,373.06,141,381.48Z"/><path class="cls-9" d="M383.91,426.65c.61.35,3,4.86,2.67,5.49a1.42,1.42,0,0,1-.62.51,40.35,40.35,0,0,1-17.25,4.5,6.72,6.72,0,0,0,4.47-2.83,21,21,0,0,0,2.47-4.92c-2.38-1.21-3.9-3.64-5.42-5.87-2.42-3.56-5.64-6.58-8-10a68.6,68.6,0,0,1,13.47,7.57A57.66,57.66,0,0,0,383.91,426.65Z"/><path class="cls-10" d="M117.89,509.32a444.28,444.28,0,0,0,57.11.76c-11.31-13.67-34.24-2.18-37.15-19.85C136,479,143.78,456.74,141,445.69c-1.1-4.39,3.84-25,3.73-29.5C135.78,422.94,116.82,509.24,117.89,509.32Z"/><path class="cls-6" d="M249.05,345.69s-19.26.57-35.72,31.2c0,0,15-2.55,15,0,0,0-19.45,8.15-26.44,19.39,0,0,16.79,57.48,3.66,112.47"/><path class="cls-10" d="M216.44,375.56s8.86-1.9,11.86,1.33c0,0-24.44,13.94-26.44,19.39,0,0,13.64,40.47,3.66,112.47l-3.66-.12s14.57-74.82-3.58-109c0,0,19.8-20.89,27.17-21.4l-17.85,3.29Z"/></g><g id="Head"><path class="cls-2" d="M253.72,353.58s-1.56,8.67,0,16.16c0,0,12.37,18.24,17,20.49,5.3,2.61,16.86,0,16.86,0s79-29.14,82.95-53.84c0,0,7.94-39.47,11.88-45.86l-11.2-14.32-38.46,30.55-39.14,34.39S273.09,363.8,253.72,353.58Z"/><path class="cls-9" d="M245,358.44a12.72,12.72,0,0,0,1.74,4.42l2.81,5.16c.73,1.35,1.78,2.88,3.3,2.83.2,0,.93-8.67,1-9.56.37-3.46,1-6.06-1.07-9.08C248.42,345.79,244.36,353.38,245,358.44Z"/><path class="cls-4" d="M373.49,283s-5.95,37.36-9.87,40.3-19.72,22.1-54.68,42.85c-23.35,8.4-50.38,4.75-56.8-3.08l1-12.51,64.67-6.13L363.28,298l4.77-17.36Z"/><path class="cls-4" d="M262.49,373.17c5.31,6.35,13.22,13.24,21.17,15.55a19.77,19.77,0,0,1-11.71,1.1c-1.56-.33-4.1-2.29-5.4-3.22a11.81,11.81,0,0,1-2.23-2.29L255,372.79a10.6,10.6,0,0,1-1.65-2.46,11.17,11.17,0,0,1-.68-3.69c-.07-1.14-.8-4.81.34-5.55,1.5-1,2.13,1.71,2.69,2.69A64.54,64.54,0,0,0,262.49,373.17Z"/><path class="cls-9" d="M407.11,229s15.31-41.91,0-65.89-55.47-75.52-125-57.54c-40.76,8.39-41.39,45.54-41.39,45.54l92.33,9,29.37,77.31,22.78,32.34Z"/><path class="cls-2" d="M370.22,282s-7.19,37.76-9.59,39.56-50.34,39-59.33,39.56c-10.19.6-38.06,5.69-51-7.19-5.78-14.92-27.57-73.72-22.78-99.5s-.79-65.93-.79-65.93,3.79-36.56,32.56-56.34,75.52-8.39,75.52-8.39-16.78,10.19-7.19,12,25.17,2.4,30.57,7.19,19.78,44.95,16.18,89.31L381,249s12.59-20.38,23.38-20.38,7.79,21.58,4.19,28.77-10.43,24.3-17.31,30C387.14,290.89,382.21,294.57,370.22,282Z"/><path class="cls-4" d="M248.78,243.53c7.8.29,11.12-3.53,12.76-.6,1.78,1.86,0,9.23-4.31,18.79,5.09-6.14,9.11-24.67,5.33-32-.27-.52-.31-1.24-.86-1.43-1.51,2.17.48,5.64-1.26,7.64a4.4,4.4,0,0,1-1.49,1,39,39,0,0,1-5.38,2c-1.25.41-2.51.81-3.8,1.1a21.91,21.91,0,0,1-6,.5c-.9,0-5.81-1.88-6.29-.9C236.51,241.63,241,243.25,248.78,243.53Z"/><path class="cls-11" d="M256.34,209s17.85,36-2.39,56c-7,6.89,0,15.59,0,15.59"/><path class="cls-4" d="M288.71,280.59s10.75-11.18-9.59-17.38"/><path class="cls-4" d="M252,267.68a24.08,24.08,0,0,1,20.25-1c1.35.56,2.65,1.24,4,1.77,3.19,1.24,6.67,1.61,9.83,2.93a9.26,9.26,0,0,1,3.5,2.32,4.85,4.85,0,0,1,1.25,3.91c-.62-.23-1.13.53-1.29,1.16s-.38,1.43-1,1.53c-4.11-2.24-9.53-.84-14.2-.4-2.24.2-4.49.27-6.73.34l-12,.36a3.21,3.21,0,0,1-2-.37,3.11,3.11,0,0,1-.8-1,16.67,16.67,0,0,1-2.18-5.69C250.34,271.49,250.23,268.64,252,267.68Z"/><path class="cls-9" d="M279.12,278.19s-.18-6.59-10.28-6.29C268.84,271.9,269.53,275.79,279.12,278.19Z"/><polygon class="cls-4" points="288.71 215.53 298.18 235.27 330.93 235.27 341.45 219.12 325.07 205.62 290.76 208.03 288.71 215.53"/><path class="cls-9" d="M285.33,206.27l3.38,9s21.58-17.38,52.74,3.59c0,0-7.87-23.29-35.71-19.26-.57.08-.94,2.13-1.53,2.23-.86.16-1.95-1.61-2.84-1.41A76.81,76.81,0,0,0,285.33,206.27Z"/><path class="cls-4" d="M261.54,237l.65-10.34-4.35-14.23-16-5.51-11.38,10.69-1.19,9a21.63,21.63,0,0,1,8.26,13Z"/><path class="cls-9" d="M259.7,217.24l-2.68-8.5s-17.35-19.86-28,7.72v10.18S240.25,204.66,259.7,217.24Z"/><path class="cls-5" d="M298.18,235s11.72-17.24,32.75,0C330.93,235,313.86,245.43,298.18,235Z"/><path class="cls-4" d="M265.93,300.57s-8.88-4.66-11.63-1.55-9.49,6.58-9.49,6.58,6.85,5.12,10.08,8.25c4.19,4,20.69,4.14,24.23,3.1s21.47-5.52,24.57-11c0,0-16.64-2.42-24.57-6.9C273.6,297,270.24,300.57,265.93,300.57Z"/><path class="cls-5" d="M261.54,237s-12.16,9.19-24.05,2.66c0,0-.26-8.09,10.6-9.38S261.54,237,261.54,237Z"/><path class="cls-4" d="M365.3,254.18a34.87,34.87,0,0,1-.23,4v.1c-1,13.92-5.28,35-7.77,48.71A16.09,16.09,0,0,1,351,318.29c-8.64,8.21-17.64,15.09-27,22.48-.83.66-1.87,1.36-2.88,1,2.28-2.86,2.22-5.92,2.91-9.51a58.06,58.06,0,0,1,1.71-6.2A106,106,0,0,0,330.15,300c.09-2.28-.91-7.62,0-10.26h-.4c-8.59,0-10.5-.24-16.64-5.31,12.43,4.81,21,.37,32-8,7.14-5.4,11.77-12.3,15-20.6a92.77,92.77,0,0,0,3.93-11A35.06,35.06,0,0,1,365.3,254.18Z"/><path class="cls-9" d="M253.19,307.7c2.76-.24,3.71-1.65,6.47-1.82,3.9-.25,6,2.18,9.9,1.85,0,0,5.24-.39,6.33-.49a17,17,0,0,1,5.79.9c6.63,1.74,13.92,2.44,20.16-.4.75-.34,1.59-1.14,1.13-1.82-6.64,1.09-13.49,2.17-20,.54-2.93-.74-5.81-2-8.84-1.94-2,.06-3.88.7-5.84.75-3.44.09-6.75-1.62-10.18-1.38a29.08,29.08,0,0,0-4.48,1c-.89.21-7.2.49-7.3.81C245.9,307,252.33,307.77,253.19,307.7Z"/><path class="cls-9" d="M258.44,278.75a6.37,6.37,0,0,0-3.64-5.09S256,278.75,258.44,278.75Z"/><path class="cls-4" d="M260,324.39c3.82.13,7.55,1.5,11.38,1.42,3.46-.08,6.77-1.33,10-2.56"/><path class="cls-4" d="M277.26,257.11a16,16,0,0,1,13.37,6.46c1.23,1.68,2.75,3.9,4.77,3.39q-3.13-12.63-6.69-25.14a65.34,65.34,0,0,0-4.78-12.95c-1.14-2.14-6.26-9.81-6.22-3.88,0,5.28,1.62,10.47,1.38,15.92A160.24,160.24,0,0,1,277.26,257.11Z"/><path class="cls-12" d="M355.89,145a56.12,56.12,0,0,1-12.11,12.83,2.39,2.39,0,0,0-.45,3.94l10.23,16.95a2.59,2.59,0,0,0,.64.79,2.48,2.48,0,0,0,1.13.34,26.76,26.76,0,0,0,9.6-.61,1.51,1.51,0,0,0,1.4-1.59c1.32-9.37-2.95-18.52-7.11-27-.41-.84-1.48-1.26-1.79-2.15C356.93,147.06,357.07,145.86,355.89,145Z"/><path class="cls-9" d="M385.37,129.81l-2.8.76a32.67,32.67,0,0,1,6.81,4.41,17.29,17.29,0,0,1,3.6,2.1,3.83,3.83,0,0,1-2.26-.88,20.46,20.46,0,0,1,7.37,7.24l-1.15-1.07a10.09,10.09,0,0,1,3.69,2.34c.22.22.44.53.31.81s-.71,0-.5-.18l5.11,6-1-.35a14.25,14.25,0,0,0,3.47,5.58,4.32,4.32,0,0,1-1.82-1.21,32.07,32.07,0,0,1,4.24,5.46l-2.43-.72a20,20,0,0,1,3.92,6.35l-1.41-.08a10.36,10.36,0,0,0,3.05,5.46,4,4,0,0,1-1.83-.61l2.49,5.27-1.35.28a12.08,12.08,0,0,0,1.34,4.05,1,1,0,0,0-1.07.42L405.36,166a82.6,82.6,0,0,0-4.5-8.07,80.46,80.46,0,0,0-6.18-7.85,139.45,139.45,0,0,0-10.14-11c-4.39-4.12-10.89-8-13.91-13.33-2.26-4,3.24-2,5-1.16Q380.59,127,385.37,129.81Z"/><path class="cls-13" d="M408.69,246.55c0-36.72-33.44,14.63-28.48,28.31,2-5.11,13.36-6.6,11.39,2.57,4.14-4.17-.28-11.17-7.24-10.06C385.76,258.23,397.83,230.56,408.69,246.55Z"/><path class="cls-9" d="M374.07,124.33a9.63,9.63,0,0,0-4.6-6.56l.15,1.87A12.15,12.15,0,0,1,366,116.7l-.19,1.27a35.69,35.69,0,0,1-5.14-5.5c.13.68-.87,1.1-1.49.77a3.65,3.65,0,0,1-1.23-1.66c-.32-.62-.82-1.26-1.52-1.28a5.41,5.41,0,0,1-5.2-2.45l-.38,1.76-3.68-2.11a1.31,1.31,0,0,0-.94-.25c-.32.09-.5.59-.21.76l-4.14-3a6.68,6.68,0,0,1-4.92-1.7l.17,1.45a11.28,11.28,0,0,1-3.06-1.18c.26-.23.5.42.19.56s-.66-.1-.93-.31a10.42,10.42,0,0,0-4.56-2.07c-.74-.14-1.84.64-1.19,1l-9.27-2.17a1.19,1.19,0,0,0-1.11.11c-.28.27,0,.91.36.69a19.64,19.64,0,0,0-11.38-.66,142.88,142.88,0,0,1-18.95,1l.61,1.1a19.41,19.41,0,0,0-7.81-.52l.38,1.21c-1,.42-2.1,0-3.15.12s-2.19,1.27-1.53,2.1l-4.42.31a1.36,1.36,0,0,0-1,.4c-.22.32.11.9.45.71a7,7,0,0,0-4.07,1l.94,1.27a46.08,46.08,0,0,0-8.93,3.84c-2.38,1.33-5.34,1.51-7.92,2.37l2.36.84a1,1,0,0,0-.22,1.83L250,120.48a1.68,1.68,0,0,0-.8,1.15c0,.48.72.87,1,.45l-2.3,1.2c1,.14.81,1.69,0,2.29s-1.84.8-2.42,1.57c-.35.46.07,1.43.48,1l-1.26,1.52c.54-.57,1,.75.76,1.48l-1.74,4.39a69.62,69.62,0,0,0,6-5.16c1.4-1.41,2.68-3,4.2-4.23a30.09,30.09,0,0,1,6.24-3.8,142.65,142.65,0,0,1,76.21-13.89,27.94,27.94,0,0,1,5.83,1,30.27,30.27,0,0,1,7,3.69C356.77,118.16,365.12,122.8,374.07,124.33Z"/><path class="cls-9" d="M369.56,175.93a3,3,0,0,1,2,.52,43.13,43.13,0,0,0-.14,10.65.81.81,0,0,0,1.12-.67l.12,3.28a4.6,4.6,0,0,1,2.14,5.74,22.54,22.54,0,0,0-1.91,6.12,7.6,7.6,0,0,0,1.66,6l-1.28-.55,1,3a104.59,104.59,0,0,1-1.42,15.7c-.15.89.31,2.29,1.11,1.86a3.51,3.51,0,0,1,.71-2.63,12.57,12.57,0,0,1,.38,4.92.79.79,0,0,0-1.3-.5,46.87,46.87,0,0,1,1.24,8.9l2.25,2.33c2.39,2.47,5,5.52,4.34,8.9a5.13,5.13,0,0,1-.69-3.76c.44-1.61,1.91-2.68,3.16-3.78,5.65-4.93,8.33-12.61,8.64-20.11s-1.49-14.9-3.54-22.12a179.37,179.37,0,0,0-11.51-31c-1.12-2.25-4.59-4.91-7.08-2.86C368.26,167.81,369.83,173.29,369.56,175.93Z"/><path class="cls-9" d="M415.3,187.55l-1.2-.24A3.23,3.23,0,0,1,415,190c-.45-.09-.6.57-.55,1l.81,6.66a2.4,2.4,0,0,1-1.08-1.23,55.58,55.58,0,0,0,.62,6.93l-1.16-1.14a10.79,10.79,0,0,0-.09,5.91l-.83-1,.58,2.84a.77.77,0,0,0-.22-1v3l-.15-.88a5.66,5.66,0,0,1-.35,2.91l-1-1.46.14,3.54c0,.33-.3.8-.5.54l-.54,3.61a.79.79,0,0,0-.42-1,10.25,10.25,0,0,1-.25,3.12,1,1,0,0,1-.45-1.06,6.92,6.92,0,0,1-.66,4.4l-.95-.49.57,2.48a2.64,2.64,0,0,1-2.05-1.51,6.68,6.68,0,0,1-.6-2.58c-.64-7.87,1.51-15.66,2.71-23.47.43-2.79.74-5.6,1.05-8.41l1.19-10.79c1.74-.06,2.44.25,3.14,1.77C414.16,183.06,415.29,187.55,415.3,187.55Z"/><path class="cls-4" d="M260.62,242.75a14.57,14.57,0,0,1-3.62,2.92,26.16,26.16,0,0,1-2.93,1.39l2.26.1a2.16,2.16,0,0,0,.76,0,2.4,2.4,0,0,0,.87-.54,15.23,15.23,0,0,0,2.23-2.24,3.82,3.82,0,0,0,1.05-2.67C260.74,241.66,261,242.37,260.62,242.75Z"/><path class="cls-4" d="M302.35,241.75l4.25,2.78a10.25,10.25,0,0,1-6.07-2,5.23,5.23,0,0,1-.92-.83,9,9,0,0,1-1.5-3.17C299.06,238.46,301.31,241.07,302.35,241.75Z"/><path class="cls-4" d="M268.66,281a27.72,27.72,0,0,0-3.9.18c-.2.18,0,.71-.06,1A118.87,118.87,0,0,0,260,295.9a15.9,15.9,0,0,1,4.86,1.86,6.85,6.85,0,0,0,2.07.48c.64.14,1.11-.21,1.74-.38l5.65-1.48a.57.57,0,0,0,.36-.21.5.5,0,0,0,0-.36,58.79,58.79,0,0,1-2.83-12.94C271.49,279.84,271.35,280.87,268.66,281Z"/></g></g><g class="cls-14"><g class="cls-15"><path class="cls-16" d="M340.4,50.73,74.2,380.21a219.91,219.91,0,0,0,37.61,39.38l275-340.31A218.85,218.85,0,0,0,340.4,50.73Z"/><path class="cls-16" d="M42.54,319.58A217.57,217.57,0,0,0,57,353.07L310.24,39.64a217.35,217.35,0,0,0-35.83-7Z"/><path class="cls-16" d="M393.71,85.07l59.23-73.31-42-33.94L348.76,54.76A218.31,218.31,0,0,1,393.71,85.07Z"/><path class="cls-16" d="M319.53,42.52l67.12-83.07-25.12-20.3L284.88,34A218.36,218.36,0,0,1,319.53,42.52Z"/><path class="cls-16" d="M79.89,387.54,1.74,484.25l42,33.94,75.17-93A219.66,219.66,0,0,1,79.89,387.54Z"/><path class="cls-16" d="M46.14,329.5l-93.8,116.08,25.12,20.3L61.78,361.53A217.19,217.19,0,0,1,46.14,329.5Z"/></g></g><path class="cls-4" d="M250,41.24a208.82,208.82,0,0,1,81.26,401.12A208.82,208.82,0,0,1,168.74,57.64,207.33,207.33,0,0,1,250,41.24m0-10C129.18,31.24,31.24,129.18,31.24,250S129.18,468.76,250,468.76,468.76,370.82,468.76,250,370.82,31.24,250,31.24Z"/></g></svg>