/* XPM */
static char *bitcoin64[] = {
/* columns rows colors chars-per-pixel */
"64 64 124 2 ",
"   c None",
".  c #853338",
"X  c #893638",
"o  c #8C3838",
"O  c #913D3A",
"+  c #95413B",
"@  c #9A453C",
"#  c #9D483E",
"$  c #A24D3D",
"%  c #AA553C",
"&  c #AE583B",
"*  c #B25C3C",
"=  c #B6613C",
"-  c #BB653C",
";  c #BE683D",
":  c #C36D3E",
">  c #C7703F",
",  c #CB753E",
"<  c #CF783E",
"1  c #D47D3E",
"2  c #924240",
"3  c #9C4A40",
"4  c #9F5043",
"5  c #9C544F",
"6  c #9D5650",
"7  c #A64F42",
"8  c #A65040",
"9  c #AB5542",
"0  c #A65945",
"q  c #AA5B4B",
"w  c #B25C41",
"e  c #AD624A",
"r  c #BA6340",
"t  c #BE6841",
"y  c #AE6152",
"u  c #B36B5C",
"i  c #BC7254",
"p  c #BD7955",
"a  c #BE765D",
"s  c #BF7B58",
"d  c #C16C42",
"f  c #C57040",
"g  c #CD7943",
"h  c #CB7C4A",
"j  c #D17C40",
"k  c #C27B5C",
"l  c #D6813E",
"z  c #DA843E",
"x  c #DF893D",
"c  c #E18C3D",
"v  c #E6903D",
"b  c #E9943D",
"n  c #EE993C",
"m  c #F39F3C",
"M  c #F3A03E",
"N  c #D68344",
"B  c #D98646",
"V  c #DE8A42",
"C  c #D4854B",
"Z  c #DC8D4C",
"A  c #CA835E",
"S  c #CE8A5A",
"D  c #D28551",
"F  c #D68C52",
"G  c #D48C5D",
"H  c #D5905D",
"J  c #DE975A",
"K  c #DF9C5E",
"L  c #E28F44",
"P  c #EA9841",
"I  c #E3944E",
"U  c #E6984F",
"Y  c #E39551",
"T  c #E49A55",
"R  c #EC9F52",
"E  c #E09B5F",
"W  c #F4A243",
"Q  c #F4A64B",
"!  c #F4AA4B",
"~  c #EEA254",
"^  c #E7A55E",
"/  c #EEA55B",
"(  c #EDAA5A",
")  c #F0A350",
"_  c #F5AA54",
"`  c #F5AD5C",
"'  c #F6B053",
"]  c #F5B75E",
"[  c #D58E60",
"{  c #D49A65",
"}  c #DA9A60",
"|  c #DE9C69",
" . c #E29C61",
".. c #DBA46A",
"X. c #E5A061",
"o. c #EAA462",
"O. c #E7AA66",
"+. c #ECAA63",
"@. c #E3A168",
"#. c #E4AC6B",
"$. c #F3AD62",
"%. c #EFB368",
"&. c #F6B163",
"*. c #F3B960",
"=. c #F4BB6D",
"-. c #F8BD68",
";. c #ECB770",
":. c #EFBE75",
">. c #F6BF71",
",. c #FBC167",
"<. c #F3C26C",
"1. c #FCC86F",
"2. c #F7C273",
"3. c #F8C574",
"4. c #FAC877",
"5. c #F4C478",
"6. c #FBCC7B",
"7. c #FED27E",
"8. c #F0BE82",
"9. c #F2C385",
"0. c #F8CA86",
"q. c #FFD580",
"w. c #FCD793",
"e. c #FFDC97",
/* pixels */
"                                                  m m m m m m m m m m m m m m                                                   ",
"                                            m m m m m m m m m m m m m m m m Q $.&.&.                                            ",
"                                      m m m m m m m m m m m m m m m m m m Q &.&.&.&.&._ m                                       ",
"                                  m m m m m m m m m m m m m m m n m m m W &.&.&.&.&._ m m m m                                   ",
"                              m m m m m m m m m m v c 1 < < < < < < < g N L T ` &.` m m m m _ &.&.                              ",
"                            m m m m m m m n c 1 < < < l z c c c c L Y B B < < g j L n m m Q &.&.&.&.                            ",
"                        m m m m m m m b 1 1 < 1 c b m m m m m m m &.&.&.&.&.R c 1 < < 1 P &.&.&.&.&.&.&.                        ",
"                      m m m m m m n 1 < < c b m m m m m m m m m ` &.&.&.&.&.m m m n L < < B / $.&.&.&.&.&.                      ",
"                    m m m m m m c < < c m m m m m m m m m m m _ &.&.&.&.&.W m m m Q &.&.I g < Y &.&.&.&._ m                     ",
"                  m m m m m n 1 < z n m m m m m m m m m m m Q &.&.&.&.&.Q m m m W ` &.&.&.$.B < N / &.` m m m                   ",
"                m m m m m v 1 < c m m m m m m m m m m m m W &.&.&.&.&._ m m m M ` &.&.&.&.&.&.U < j ) W m m m m                 ",
"              m m m m m v < 1 n m m m m m m m m m m m m m &.&.&.&.&._ m m m m ` &.&.&.&.&.&.&.&.R 1 < v m m m m m               ",
"            m m m m m c < 1 m m m m m m m m m m m m m m &.&.&.&.&.&.m m m n Y  . .$.&.&.&.&.&.` m m 1 < v m m m M m             ",
"            m m m m n < 1 m m m m m m m m m m m m m m _ &.&.&.&.&.W j r 7 q u u u u u k [ o.` W m m m 1 < b m m m m             ",
"          m m m m n 1 < n m m m m m m m m m m m m m Q &.&.&.&.&.h w 7 7 9 u u u u u u u u u d L m m m n < 1 m m m m m           ",
"        m m m m m 1 < n m m m m m m m m m m m m m Q &.&.&.&.&.Y 7 7 7 d G  . . . .[ A u u q 7 9 1 m m m n < j m m m m m         ",
"        m m m m c < c m m m m m m m m m m m m m W &.&.&.&.&._ r 7 < n ` &.&.&.&.&.$.k u y 7 7 7 7 > v m m c < c m m m m         ",
"      m m m m n < l m m m m m m m m m m m m m M ` &.&.&.&.` m 9 v M _ &.&.&.&.&.&.$.X.G d w 7 7 7 7 : v m m 1 1 n m m m m       ",
"      m m m m l < n m m m m m m m m m m m m m _ &.&.&.&.&.M c c m Q &.&.&.&.&.&.&.&.] m m ! - 7 7 7 7 d v m n < 1 m m m m       ",
"    m m m m n < c m m m m m m m m m m m m m _ &.&.&.&.&.Q m m m W ] &.&.&.&.&.&.&.&.W m _ <.Z 7 7 7 7 7 , b m c < n m m m m     ",
"    m m m m l < m m m m m m m m m m m m m Q &.&.&.&.&.Q m m m m ` &.&.&.&.&.&.&.&.Q m ! <.<.] 0 7 7 7 7 w c m m < 1 m m m m     ",
"    m m m n < x m m m m m m m m m m m m W ` &.&.&.&._ m m m m ` $.&.&.&.&.&.&.&._ M m m *.<.<.r 7 7 7 7 9 < m m c < m m m m     ",
"  m m m m x < n m m m m m m m m m m m M ` &.&.&.&.` W m m m _ &.&.&.&.&.&.&.&.` m m m m W <.<.t 7 7 7 7 7 < b m n , c m m m m   ",
"  m m m m 1 1 m m m m m m m m m m m M _ &.&.&.&.&.W m m m Q &.&.&.&.&.&.&.&.` m m m m m M W W < 7 7 7 7 7 > b m m 1 1 m m m m   ",
"  m m m m < c m m m m m m m m m m m _ &.&.&.&.&.Q m m m Q &.&.&.&.&.&.&.&.&.W m m m m m m m m l 7 7 7 7 7 : b m m c < n m m m   ",
"m m m m c < v m m m m m m m m m m Q &.&.&.&.&.Q m m m m &.&.$. .&.&.&.&.&.U < : d l m m m m m l 7 7 7 7 7 : b m m b < c m m m m ",
"m m m m x 1 m m m m m m m m m m W &.&.&.&.&._ m m m m ` &. .u u a &.&.&.D 7 7 9 9 7 w n m m m z 7 7 7 7 7 < b m m m < c m m m m ",
"m m m m l l m m m m m m m m m m ` &.&.&.&.` m m m m _ &.&.k u k a  .&.` L - < 1 < , t f m m m c 7 7 7 7 7 < n m m m l z m m m m ",
"m m m m < z m m m m m m m m m ` &.&.&.&.&.M m m m Q &.&.&.[ [ [ G  .` v m 1 1 < 1 < < z m m m 1 7 7 7 7 w c m m m m z < m m m m ",
"m m m m < c m m m m m m m m _ &.&.&.&.&.W m m m Q &.&.&.&. . .9.8.@.W c z v ^ 6.7.=.N m m m m c 7 7 d c z c m m m m c < m m m m ",
"m m m m < c m m m m m m m Q &.&.&.&.&.Q m m m W ` &.&.&.&.&.0.e.w.E m c 1 m ` 1.1.-.! m m m m v 7 w c < z < m m m m c < m m m m ",
"m m m n < c m m m m m m W &.&.&.&.&._ M m m M ` &.&.&.&.&.&.$.+.U z m c < v n n m m m m m m b m 1 v 1 b c < m m m m c < m m m m ",
"m m m n < c m m m m m M &.&.&.&.&.` m m m M _ &.&.&.&.&.&.&.&.! m c m x < c m m m m m m m n 1 m m 1 m m v z m m m m c < n m m m ",
"m m m m < c m m m m m ` &.&.&.&.` m m m m Q &.&.&.&.&.&.&.&.` M n c m n z 1 m m m m m m m v z m b x m m z v m m m m c < m m m m ",
"m m m m < c m m m m _ &.&.&.&.` W m m m Q &.&.&.&.&.&.&.&.] M M 1 < : < < c m m m m m m n < l m c 1 b b 1 m m m m m c < m m m m ",
"m m m m < z m m m Q &.&.&.&.&.Q m m m W &.&.&.&.&.&.&.&.$.W m m : , > r 1 c m m m m m v 1 < c m n m b l v m m m m m z < m m m m ",
"m m m m 1 z m m W &.&.&.&.&._ m M m M ` &.&.&.&.&.&.&.&.W M M M m v < m m m m m c c l < < < v n m m v 1 m m m m m m z z m m m m ",
"m m m m c < m W &.&.&.&.&.` m m m m _ &.&.&.&.&.&.&.&._ m m M M m 1 < b m m m m m b < < < 1 b c n z v n m m m m m m < c m m m m ",
"m m m m v < n ` &.&.&.&.` W m m m _ &.&.&.&.&.&.&.&.` W M M n n 1 : , , c b m m m m 1 < < < m c b 1 m m m m m m m b < c m m m m ",
"  m m m n < I &.&.&.&.&.W m m m Q &.&.&.&.&.&.&.&.&.M m M M M x - : d r w r : m m m < < < 1 n b x c m m m m m m m c < n m m m   ",
"  m m m m 1 N &.&.&.&.Q m m m W &.&.&.&.&.&.&.&.] M M m m m m m v z 1 z c n m m m n < < < v c m 1 v m m m m m m m 1 1 m m m m   ",
"  m m m m c < / &.&._ m m m m &.&.&.&.&.&.&.&.&.W m M m m m m m m b c v m m m m m c < < v n c n < m m m m m m m n < z m m m m   ",
"    m m m ) < I &._ m m m m _ &.&.&.&.&.&.&.&._ m m m m m m m m m m m m m m m m m z < n v x M x 1 m m m m m m m z < m m m m     ",
"    m m Q &.N < / m m m m _ &.&.&.&.&.&.&.&.` m m m m m m m m m m m m m m m m m m z n c x m M - : v m m m m m m < z m m m m     ",
"    m W &.&./ < x m m m Q &.&.&.&.&.&.&.&.` M m M M M m m m ; , m m m m m m m m m b 1 v m m Q $ 7 1 m m m m m x < n m m m m     ",
"      &.&.&.&.B < m m W &.&.&.&.&.&.&.&.&.Q m m M M n 1 = @ o 8 v m m m m m m m c 1 n m m ! #.O 7 : v m m m m < l m m m m       ",
"      &.&.&.&./ < l m &.&.&.&.&.&.&.&.&.Q m m z : & # # + X o @ f z c c c c z 1 c m m W &.4.e o @ O $ * l m l < n m m m m       ",
"        &.&.&.W c < U &.&.&.&.&.&.&.&.~ < - $ $ + + o o o X o s C 1 c c c c v m m m ' -.4...o o @ 7 $ $ @ - < c m m m m         ",
"        &.&.Q m m 1 < / $.&.&.&.&.H i @ + O o o o o X . . . o s 6.N x M M M m M Q =.=.2.6.+ o o 7 7 O 3 9 1 1 m m m m m         ",
"          _ m m m m 1 1 $.$.&.&.k 6 o o o o o o o X X . o o o { 7.=.N l b W _ =.=.=.=.>.s o o + 7 7 o @ , 1 n m m m m           ",
"            m m m ` / 1 N $.&. .5 o o o o o o o o X . o o o o :.=.=.3.-.*.=.=.2.4.2.=.S o o o o @ 7 O : 1 v m m m m             ",
"            m m _ $.$.T g N ` s + o o o o o o o o . X o o o 3 2.^ Z o.K 2.=.7.q.q.4.O.O o o o o $ 9 > < v m m m m m             ",
"              Q &.&.&.&.T < 1 3 X o o o o o o o o X X o o o p %., < < , #.7.q.q.q.>.0 o o o O o $ , < v m m m m m               ",
"                &.&.&.&.&./ j < % X . o o o o o o o . o o o #.6.< < < < g 5.q.q.7.} o o o o + * < < b m m m m m                 ",
"                  &.&.&.&.&./ j < ; o o o o o o o o . o o o %.q.Z < < < < D q.7.2.@ o o o O ; < 1 n m m m m m                   ",
"                    &.&.&.&._ M c < 1 * O o o X o X . o o o #.6.J < < < < C 4.4.S o o O * < < c m m m m m m                     ",
"                      &.&.` M m m n l < < * @ X o o o o o + 4.=.t g < < ^ 3.%.7.3 + * < < l n m m m m m m                       ",
"                        ` M m m m m m n 1 1 < : & @ . o o e =.<.g = t C 7.7.+.F : < 1 l b m m m m m m m                         ",
"                            m m m m m m m m x 1 < < < - - h T J < < < < Z < < < 1 x m m m m m m m m                             ",
"                              m m m m m m m m m n v x l < < < < < < < < N x v n m m m m m m m m m                               ",
"                                  m m m m m m m m m m m m m m m n m m m M m m m m m m m m m m                                   ",
"                                      m m M m m m m m m m m m m M m m m M M m m m m m m m                                       ",
"                                            m m m m m m m m m m m m m M m m m m m m                                             ",
"                                                  m m m m m m m m m m m m m m                                                   "
};
