/* XPM */
static char *bitcoin16[] = {
/* columns rows colors chars-per-pixel */
"16 16 100 2 ",
"   c None",
".  c #863438",
"X  c #883538",
"o  c #8F3B39",
"O  c #903C38",
"+  c #A9553A",
"@  c #AD573B",
"#  c #B15B3C",
"$  c #B45F3C",
"%  c #B6603F",
"&  c #BC673D",
"*  c #C6703F",
"=  c #CB753F",
"-  c #CC753F",
";  c #D47E3D",
":  c #9F5249",
">  c #A64F42",
",  c #AB5E47",
"<  c #A55A48",
"1  c #B05941",
"2  c #B35C41",
"3  c #B55E41",
"4  c #BB7452",
"5  c #C56F42",
"6  c #C57040",
"7  c #C97842",
"8  c #CF7B44",
"9  c #C3734D",
"0  c #C87948",
"q  c #CA7B50",
"w  c #C67C59",
"e  c #D6803D",
"r  c #D8823E",
"t  c #DA843D",
"y  c #DD873D",
"u  c #DC863E",
"i  c #DF893D",
"p  c #DE893E",
"a  c #E08B3E",
"s  c #E18C3C",
"d  c #E18C3D",
"f  c #E28E3D",
"g  c #E38E3D",
"h  c #E6903D",
"j  c #E8933D",
"k  c #EA953D",
"l  c #EF9A3C",
"z  c #EC993F",
"x  c #F19D3C",
"c  c #F39F3C",
"v  c #F3A03E",
"b  c #F3A03F",
"n  c #CD824D",
"m  c #DD8A45",
"M  c #DD8B47",
"N  c #DD8C49",
"B  c #DD8E4A",
"V  c #DA8B4C",
"C  c #CA8059",
"Z  c #C8815E",
"A  c #DC9153",
"S  c #E18D40",
"D  c #E29047",
"F  c #E0904C",
"G  c #E0914E",
"H  c #E39551",
"J  c #E39B55",
"K  c #EB9F53",
"L  c #EC9F52",
"P  c #E49D5D",
"I  c #F3A141",
"U  c #F4A243",
"Y  c #F4A446",
"T  c #F4A546",
"R  c #F4A548",
"E  c #F4A64B",
"W  c #F4A74D",
"Q  c #EAA556",
"!  c #E5A65B",
"~  c #E1A05E",
"^  c #ECA35A",
"/  c #F0A555",
"(  c #F5A850",
")  c #F3A855",
"_  c #F5AA54",
"`  c #F5AB57",
"'  c #F2AC56",
"]  c #F5AD59",
"[  c #F3AC5E",
"{  c #F5AE5C",
"}  c #D58E60",
"|  c #E9A462",
" . c #E6A86E",
".. c #F1AB62",
"X. c #F2AC60",
"o. c #F2AD63",
"O. c #F6B060",
"+. c #F6B061",
"@. c #F6B163",
"#. c #F2BE72",
/* pixels */
"          c c c x ) {           ",
"      c k y y a H M m / @.      ",
"    c y a c c _ X.E { H G c     ",
"  c i h c c W ..q w Z w S a c   ",
"  k a c c Y O.Q / @.o.8 1 r k   ",
"c y c c U X.{ W @.O.E ! > 7 a c ",
"c y c v { { T } | 9 * a > * y c ",
"l d c _ O.E O. .P B Q g 2 u a x ",
"c a W @.W { O.{ 7 a x y a k s c ",
"c M @.( ` @.O.l * a u r h c y c ",
"c m ) ( @.O.U v g x r k s c y c ",
"  ^ D @...V & + j j k 7 $ ; k   ",
"  E M A : o . < J ' P O 3 a c   ",
"    O.G @ o . 4 8 #., # a c     ",
"      E k e % 0 6 V e k c       ",
"          c c c l v c           "
};
