/* XPM */
static char *bitcoin32[] = {
/* columns rows colors chars-per-pixel */
"32 32 197 2 ",
"   c None",
".  c #853338",
"X  c #863438",
"o  c #883538",
"O  c #893638",
"+  c #8B3738",
"@  c #8C3838",
"#  c #8F3B39",
"$  c #903C38",
"%  c #933E3B",
"&  c #93403B",
"*  c #994439",
"=  c #99443D",
"-  c #9C463D",
";  c #9D483A",
":  c #9A483F",
">  c #A14B3C",
",  c #A04A3F",
"<  c #A6503E",
"1  c #AB563B",
"2  c #AD573B",
"3  c #AE583B",
"4  c #B6603C",
"5  c #BE693E",
"6  c #C56E3F",
"7  c #C66F3E",
"8  c #C6713D",
"9  c #C7703F",
"0  c #C8733B",
"q  c #CB743E",
"w  c #CC753E",
"e  c #CC753F",
"r  c #CF783E",
"t  c #D17A3E",
"y  c #D47D3E",
"u  c #D67F3E",
"i  c #944643",
"p  c #994943",
"a  c #9F4940",
"s  c #A54F41",
"d  c #A64F42",
"f  c #A95242",
"g  c #AB5442",
"h  c #A95F4A",
"j  c #B05941",
"k  c #B35C41",
"l  c #B45D40",
"z  c #B55E41",
"x  c #B05A44",
"c  c #B15C45",
"v  c #B76346",
"b  c #B86140",
"n  c #B86242",
"m  c #BB6440",
"M  c #BC6640",
"N  c #BD6640",
"B  c #BE6840",
"V  c #BF6940",
"C  c #BD6843",
"Z  c #BF6D40",
"A  c #BD6A47",
"S  c #B46A4D",
"D  c #B2695A",
"F  c #B76F5C",
"G  c #B77353",
"H  c #BB745D",
"J  c #C06940",
"K  c #C16B40",
"L  c #C57040",
"P  c #C37146",
"I  c #C97643",
"U  c #CD7841",
"Y  c #D17C40",
"T  c #D47F43",
"R  c #C07953",
"E  c #C47B5B",
"W  c #C67C59",
"Q  c #C57F59",
"!  c #D6803D",
"~  c #D6813E",
"^  c #D8823E",
"/  c #DA843D",
"(  c #D9843E",
")  c #DB863E",
"_  c #DC873D",
"`  c #DD873D",
"'  c #DF893D",
"]  c #E08C3B",
"[  c #E08B3E",
"{  c #E18C3D",
"}  c #E28E3D",
"|  c #E38E3D",
" . c #E6903D",
".. c #E6923C",
"X. c #E7933D",
"o. c #E8933D",
"O. c #E9953D",
"+. c #EA953D",
"@. c #E8943F",
"#. c #EC983C",
"$. c #EF9A3C",
"%. c #F19D3C",
"&. c #F39F3C",
"*. c #F19E3F",
"=. c #F3A03E",
"-. c #D68241",
";. c #D68243",
":. c #D68345",
">. c #D68447",
",. c #D88340",
"<. c #D88542",
"1. c #D88744",
"2. c #DD8B47",
"3. c #DF8C44",
"4. c #D18149",
"5. c #D28148",
"6. c #D68A4A",
"7. c #DB8A4A",
"8. c #DE8D4C",
"9. c #C8815E",
"0. c #CC855F",
"q. c #CE875F",
"w. c #D18E57",
"e. c #D8925B",
"r. c #EB9944",
"t. c #E0914E",
"y. c #E99A4B",
"u. c #ED9E4B",
"i. c #E39551",
"p. c #E59750",
"a. c #EA9F57",
"s. c #F3A141",
"d. c #F3A342",
"f. c #F4A240",
"g. c #F4A243",
"h. c #F4A446",
"j. c #F3A648",
"k. c #F3A74B",
"l. c #F4A548",
"z. c #F4A64B",
"x. c #F4A74D",
"c. c #F4A74E",
"v. c #EEA355",
"b. c #ECA257",
"n. c #ECA756",
"m. c #E4A15B",
"M. c #E7A75F",
"N. c #E8A45D",
"B. c #EFA65C",
"V. c #F2A752",
"C. c #F5A850",
"Z. c #F5A952",
"A. c #F3AE51",
"S. c #F3A957",
"D. c #F5AA54",
"F. c #F5AB57",
"G. c #F3AA59",
"H. c #F3AB5B",
"J. c #F5AD59",
"K. c #F5AD5B",
"L. c #F5AE5C",
"P. c #F6AF5E",
"I. c #F3B357",
"U. c #F8B75A",
"Y. c #D58E60",
"T. c #D19360",
"R. c #DD9760",
"E. c #DE9F6C",
"W. c #E39D61",
"Q. c #E29F62",
"!. c #E6A762",
"~. c #E9A462",
"^. c #EDA761",
"/. c #EAAB62",
"(. c #EFA960",
"). c #EBAD64",
"_. c #E2A36D",
"`. c #F4AD61",
"'. c #ECB66F",
"]. c #F6B060",
"[. c #F6B061",
"{. c #F4B361",
"}. c #F6B163",
"|. c #F3B866",
" X c #F2B86B",
".X c #F5B868",
"XX c #F4BA6D",
"oX c #F3BC6E",
"OX c #F0BB70",
"+X c #F1BB70",
"@X c #F3C26C",
"#X c #F4C175",
"$X c #F9C675",
"%X c #FAC877",
"&X c #F5C07C",
"*X c #FDD07C",
"=X c #FFD580",
/* pixels */
"                      &.&.&.&.&.&.&.&.G.}.                      ",
"                  &.&.&.&.&.&.&.$.&.x.}.}.F.&.                  ",
"              &.&.&.&.} / t u / -.T Y 7.t.&.h.`.}.              ",
"            &.&.%.` t / +.&.&.&.L.}.}.r.` T 2.`.}.}.            ",
"          &.&.o.t [ &.&.&.&.&.F.}.}.D.&.z.`.i.Y a.}.g.          ",
"        &.&.' u $.&.&.&.&.&.z.}.}.F.&.h.}.}.}.B.-.3.&.&.        ",
"      &.&.` u &.&.&.&.&.&.h.}.}.L.-.I E 9.e.W.H.s.u [ &.&.      ",
"    &.&.X.u &.&.&.&.&.&.=.}.}.^.c x W Y.0.H D z X.%.u o.&.&.    ",
"    &.&.t +.=.&.&.&.&.=.J.}.}.5./ F.}.}.`.e.v d f / $.t &.&.    ",
"  &.&.` [ &.&.&.&.&.&.D.}.}.x.+.D.}.}.}.}.z.I.P d f / [ / &.&.  ",
"  &.&.r &.&.&.&.&.&.x.}.}.F.&.z.}.}.}.}.F.d.@Xw.d d V &.t &.&.  ",
"&.&.} ` &.&.&.&.&.h.}.}.J.&.g.}.}.}.}.L.&.&.A.6.d d k +.` } &.&.",
"&.&./ +.&.&.&.&.g.}.}.}.=.=.L.~.}.].(.-.~ =.=.[ d d k +.+./ &.&.",
"&.&.t &.&.&.&.&.J.}.}.g.&.F.R.F 0.].A b b N &.[ d d 4 +.&.t &.&.",
"&.&.u &.&.&.&.F.}.}.z.&.D.}.e._._.u.` m.N.<.&.3.d N U &.&.t &.&.",
"&.$.~ &.&.&.C.}.}.D.&.z.}.}.}.&XQ.+.` n.U.=.&.} k / / &.&.~ &.&.",
"&.&.,.&.&.z.}.[.L.&.g.[.}.}.].F.[ +.t &.&.&.+.} [ %.[ %.&.u %.&.",
"&.&.u &.g.[.}.[.s.&.P.}.}.}.U.=.K N u &.&.$.u | | |  .&.&.y &.&.",
"&.&.t &.J.}.].h.&.F.}.}.}.[.g.&.| ` &.&.| t w X.%.] &.&.&.y &.&.",
"&.&./ b.}.}.x.&.F.}.}.}.}.x.&.o.N K K | =.w t +.[ &.&.&.+./ &.&.",
"&.&.| 8.`.D.&.x.[.}.}.}.x.=.&.&.[ r o.&.#.r / X.` &.&.&.` | &.&.",
"  &.V.Y S.&.g.].}.}.}.F.=.=.&.&.&.&.&.&.[ | X.X.u &.&.&.r %.&.  ",
"  D.}.8.[ s.`.}.}.}.L.&.=.] 0 2 &.&.&.&.o.| &.Z 4 $.&.[ [ &.&.  ",
"    `.F.Y V.].}.}.^.1.K > = @ p y [ [ | #.h.(.@ a , 7 t %.&.    ",
"    }.g.o.:.`.}.W p & @ @ X o G )./ &.k.}.XXh $ d - 7 o.&.&.    ",
"      &.D.t.:.e.i @ @ @ o o @ T.M.|.|.%X%XR @ @ d 7 [ &.&.      ",
"        }.}.t.9 * o @ + + o @ +Xw w OX*X'.@ + , 7 ` &.&.        ",
"          }.}.y.t 2 $ o @ X @ #X1.w 5.*XS $ 2 t o.&.&.          ",
"            J.&.&.` q 4 ; o %  XC K oX/.4 q ` &.&.&.            ",
"              &.&.&.&.} / t U >.w t t / } &.&.&.&.              ",
"                  &.&.&.&.&.&.%.&.&.&.&.&.&.&.                  ",
"                      &.&.&.&.&.&.&.&.&.&.                      "
};
